HIERARCHY
ROOT newVegas:Hips
{
	OFFSET 0.000000 96.479958 0.000000
	CHANNELS 6 Xposition Yposition Zposition Xrotation Yrotation Zrotation
	JOINT newVegas:Pelvis
	{
		OFFSET 0.000000 0.000000 0.000000
		CHANNELS 3 Xrotation Yrotation Zrotation
		JOINT newVegas:LeftUpLeg
		{
			OFFSET 18.735201 -5.666702 -4.541200
			CHANNELS 3 Xrotation Yrotation Zrotation
			JOINT newVegas:LeftLeg
			{
				OFFSET -0.021200 -31.938179 0.493100
				CHANNELS 3 Xrotation Yrotation Zrotation
				JOINT newVegas:LeftFoot
				{
					OFFSET 0.021200 -31.938179 -4.336299
					CHANNELS 3 Xrotation Yrotation Zrotation
					JOINT newVegas:LeftToeBase
					{
						OFFSET 0.943001 -26.722000 15.023500
						CHANNELS 3 Xrotation Yrotation Zrotation
						End Site
						{
							OFFSET 0.000000 30.670183 0.000000
						}
					}
				}
				JOINT newVegas:Left_PantLeg
				{
					OFFSET 0.663870 -9.044666 -1.108900
					CHANNELS 3 Xrotation Yrotation Zrotation
					End Site
					{
						OFFSET 1.415995 20.635357 0.000000
					}
				}
			}
		}
		JOINT newVegas:RightUpLeg
		{
			OFFSET -18.735201 -5.666702 -4.541200
			CHANNELS 3 Xrotation Yrotation Zrotation
			JOINT newVegas:RightLeg
			{
				OFFSET 0.018946 -31.938133 0.493100
				CHANNELS 3 Xrotation Yrotation Zrotation
				JOINT newVegas:RightFoot
				{
					OFFSET -0.018946 -31.938126 -4.336299
					CHANNELS 3 Xrotation Yrotation Zrotation
					JOINT newVegas:RightToeBase
					{
						OFFSET -0.943001 -26.722004 15.023500
						CHANNELS 3 Xrotation Yrotation Zrotation
						End Site
						{
							OFFSET 0.000000 30.670187 0.000000
						}
					}
				}
				JOINT newVegas:Right_PantLeg
				{
					OFFSET -0.661674 -9.044716 -1.108900
					CHANNELS 3 Xrotation Yrotation Zrotation
					End Site
					{
						OFFSET -1.415958 20.635269 0.000000
					}
				}
			}
		}
	}
	JOINT newVegas:Spine
	{
		OFFSET 0.000000 10.199997 -0.299500
		CHANNELS 3 Xrotation Yrotation Zrotation
		JOINT newVegas:Spine1
		{
			OFFSET 0.000000 11.900002 -1.516600
			CHANNELS 3 Xrotation Yrotation Zrotation
			JOINT newVegas:Spine2
			{
				OFFSET 0.000000 13.600006 -2.842500
				CHANNELS 3 Xrotation Yrotation Zrotation
				JOINT newVegas:Neck
				{
					OFFSET 0.000000 9.624100 -2.890100
					CHANNELS 3 Xrotation Yrotation Zrotation
					JOINT newVegas:Head
					{
						OFFSET 0.000000 14.068802 -1.351900
						CHANNELS 3 Xrotation Yrotation Zrotation
						JOINT newVegas:Hair_Back
						{
							OFFSET 0.000000 3.231903 -17.524799
							CHANNELS 3 Xrotation Yrotation Zrotation
							End Site
							{
								OFFSET 0.000000 19.849884 0.000000
							}
						}
						JOINT newVegas:Hair_Front
						{
							OFFSET 0.000000 31.260406 4.573800
							CHANNELS 3 Xrotation Yrotation Zrotation
							JOINT newVegas:Hair_Front1
							{
								OFFSET 0.000000 2.284103 11.993300
								CHANNELS 3 Xrotation Yrotation Zrotation
								JOINT newVegas:Hair_Front2
								{
									OFFSET 0.000000 2.284103 11.993300
									CHANNELS 3 Xrotation Yrotation Zrotation
									End Site
									{
										OFFSET 0.000000 12.208862 0.000000
									}
								}
							}
						}
						JOINT newVegas:Jowel
						{
							OFFSET 0.000000 -7.458206 6.864100
							CHANNELS 3 Xrotation Yrotation Zrotation
							End Site
							{
								OFFSET 0.000000 19.849884 0.000000
							}
						}
					}
				}
				JOINT newVegas:LeftShoulder
				{
					OFFSET 15.263000 10.923401 -0.547700
					CHANNELS 3 Xrotation Yrotation Zrotation
					JOINT newVegas:LeftArm
					{
						OFFSET 25.438599 -2.830597 -13.032500
						CHANNELS 3 Xrotation Yrotation Zrotation
						JOINT newVegas:LeftForeArm
						{
							OFFSET 29.960503 0.000000 0.000000
							CHANNELS 3 Xrotation Yrotation Zrotation
							JOINT newVegas:LeftHand
							{
								OFFSET 27.849251 0.000000 0.000000
								CHANNELS 3 Xrotation Yrotation Zrotation
								JOINT newVegas:LeftHandThumb1
								{
									OFFSET 4.487587 -3.305161 6.305391
									CHANNELS 3 Xrotation Yrotation Zrotation
									JOINT newVegas:LeftHandThumb2
									{
										OFFSET 5.480453 -3.164139 3.164143
										CHANNELS 3 Xrotation Yrotation Zrotation
										JOINT newVegas:LeftHandThumb3
										{
											OFFSET 5.159721 -2.978973 2.978967
											CHANNELS 3 Xrotation Yrotation Zrotation
											End Site
											{
												OFFSET 2.494507 5.926697 1.738678
											}
										}
									}
								}
								JOINT newVegas:LeftHandIndex1
								{
									OFFSET 18.578728 -0.527832 5.208049
									CHANNELS 3 Xrotation Yrotation Zrotation
									JOINT newVegas:LeftHandIndex2
									{
										OFFSET 3.192009 0.000000 0.000000
										CHANNELS 3 Xrotation Yrotation Zrotation
										JOINT newVegas:LeftHandIndex3
										{
											OFFSET 3.835129 0.000000 0.000000
											CHANNELS 3 Xrotation Yrotation Zrotation
											End Site
											{
												OFFSET -0.034599 3.816971 0.371180
											}
										}
									}
								}
								JOINT newVegas:LeftHandMiddle1
								{
									OFFSET 18.476105 0.000000 0.000000
									CHANNELS 3 Xrotation Yrotation Zrotation
									JOINT newVegas:LeftHandMiddle2
									{
										OFFSET 3.324875 0.000000 0.000000
										CHANNELS 3 Xrotation Yrotation Zrotation
										JOINT newVegas:LeftHandMiddle3
										{
											OFFSET 4.596550 0.000000 0.000000
											CHANNELS 3 Xrotation Yrotation Zrotation
											End Site
											{
												OFFSET 0.057701 4.578827 0.399218
											}
										}
									}
								}
								JOINT newVegas:LeftHandRing1
								{
									OFFSET 17.732719 0.121887 -4.201567
									CHANNELS 3 Xrotation Yrotation Zrotation
									JOINT newVegas:LeftHandRing2
									{
										OFFSET 2.733170 0.000000 0.000000
										CHANNELS 3 Xrotation Yrotation Zrotation
										JOINT newVegas:LeftHandRing3
										{
											OFFSET 3.178268 0.000000 0.000000
											CHANNELS 3 Xrotation Yrotation Zrotation
											End Site
											{
												OFFSET 0.119102 3.170624 0.185394
											}
										}
									}
								}
								JOINT newVegas:LeftHandPinky1
								{
									OFFSET 15.989624 -0.606689 -7.535461
									CHANNELS 3 Xrotation Yrotation Zrotation
									JOINT newVegas:LeftHandPinky2
									{
										OFFSET 2.538986 0.000000 0.000000
										CHANNELS 3 Xrotation Yrotation Zrotation
										JOINT newVegas:LeftHandPinky3
										{
											OFFSET 2.593102 0.000000 0.000000
											CHANNELS 3 Xrotation Yrotation Zrotation
											End Site
											{
												OFFSET -0.150902 2.584198 0.152708
											}
										}
									}
								}
							}
							JOINT newVegas:Left_Sleeve
							{
								OFFSET 0.267448 -0.649796 0.577675
								CHANNELS 3 Xrotation Yrotation Zrotation
								End Site
								{
									OFFSET 0.000000 15.991241 0.000000
								}
							}
							JOINT newVegas:Left_CapeC
							{
								OFFSET 15.715958 -8.608795 -6.935905
								CHANNELS 3 Xrotation Yrotation Zrotation
								JOINT newVegas:Left_CapeC1
								{
									OFFSET 0.000000 -8.688499 0.000000
									CHANNELS 3 Xrotation Yrotation Zrotation
									End Site
									{
										OFFSET 0.000000 8.688499 0.000000
									}
								}
							}
						}
						JOINT newVegas:Left_CapeB
						{
							OFFSET 26.118385 -8.608795 -7.079235
							CHANNELS 3 Xrotation Yrotation Zrotation
							JOINT newVegas:Left_CapeB1
							{
								OFFSET 0.000000 -8.688499 0.000000
								CHANNELS 3 Xrotation Yrotation Zrotation
								End Site
								{
									OFFSET 0.000000 8.688499 0.000000
								}
							}
						}
						JOINT newVegas:Left_CapeA
						{
							OFFSET 5.115639 -8.608795 -10.395809
							CHANNELS 3 Xrotation Yrotation Zrotation
							JOINT newVegas:Left_CapeA1
							{
								OFFSET 0.000000 -8.688499 0.000000
								CHANNELS 3 Xrotation Yrotation Zrotation
								End Site
								{
									OFFSET 0.000000 8.688499 0.000000
								}
							}
						}
					}
				}
				JOINT newVegas:RightShoulder
				{
					OFFSET -15.263000 10.923401 -0.547700
					CHANNELS 3 Xrotation Yrotation Zrotation
					JOINT newVegas:RightArm
					{
						OFFSET -25.438599 -2.830597 -13.032500
						CHANNELS 3 Xrotation Yrotation Zrotation
						JOINT newVegas:RightForeArm
						{
							OFFSET -29.960503 0.000000 0.000000
							CHANNELS 3 Xrotation Yrotation Zrotation
							JOINT newVegas:RightHand
							{
								OFFSET -27.849251 0.000000 0.000000
								CHANNELS 3 Xrotation Yrotation Zrotation
								JOINT newVegas:RightHandThumb1
								{
									OFFSET -4.487587 -3.305161 6.305391
									CHANNELS 3 Xrotation Yrotation Zrotation
									JOINT newVegas:RightHandThumb2
									{
										OFFSET -5.480453 -3.164139 3.164143
										CHANNELS 3 Xrotation Yrotation Zrotation
										JOINT newVegas:RightHandThumb3
										{
											OFFSET -5.159721 -2.978973 2.978967
											CHANNELS 3 Xrotation Yrotation Zrotation
											End Site
											{
												OFFSET -2.494507 5.926697 1.738678
											}
										}
									}
								}
								JOINT newVegas:RightHandIndex1
								{
									OFFSET -18.578728 -0.527832 5.208049
									CHANNELS 3 Xrotation Yrotation Zrotation
									JOINT newVegas:RightHandIndex2
									{
										OFFSET -3.192009 0.000000 0.000000
										CHANNELS 3 Xrotation Yrotation Zrotation
										JOINT newVegas:RightHandIndex3
										{
											OFFSET -3.835129 0.000000 0.000000
											CHANNELS 3 Xrotation Yrotation Zrotation
											End Site
											{
												OFFSET 0.034599 3.816971 0.371180
											}
										}
									}
								}
								JOINT newVegas:RightHandMiddle1
								{
									OFFSET -18.476105 0.000000 0.000000
									CHANNELS 3 Xrotation Yrotation Zrotation
									JOINT newVegas:RightHandMiddle2
									{
										OFFSET -3.324875 0.000000 0.000000
										CHANNELS 3 Xrotation Yrotation Zrotation
										JOINT newVegas:RightHandMiddle3
										{
											OFFSET -4.596550 0.000000 0.000000
											CHANNELS 3 Xrotation Yrotation Zrotation
											End Site
											{
												OFFSET -0.057701 4.578827 0.399218
											}
										}
									}
								}
								JOINT newVegas:RightHandRing1
								{
									OFFSET -17.732719 0.121887 -4.201567
									CHANNELS 3 Xrotation Yrotation Zrotation
									JOINT newVegas:RightHandRing2
									{
										OFFSET -2.733170 0.000000 0.000000
										CHANNELS 3 Xrotation Yrotation Zrotation
										JOINT newVegas:RightHandRing3
										{
											OFFSET -3.178268 0.000000 0.000000
											CHANNELS 3 Xrotation Yrotation Zrotation
											End Site
											{
												OFFSET -0.119102 3.170624 0.185394
											}
										}
									}
								}
								JOINT newVegas:RightHandPinky1
								{
									OFFSET -15.989624 -0.606689 -7.535461
									CHANNELS 3 Xrotation Yrotation Zrotation
									JOINT newVegas:RightHandPinky2
									{
										OFFSET -2.538986 0.000000 0.000000
										CHANNELS 3 Xrotation Yrotation Zrotation
										JOINT newVegas:RightHandPinky3
										{
											OFFSET -2.593102 0.000000 0.000000
											CHANNELS 3 Xrotation Yrotation Zrotation
											End Site
											{
												OFFSET 0.150902 2.584198 0.152708
											}
										}
									}
								}
							}
							JOINT newVegas:Right_CapeC
							{
								OFFSET -15.715958 -8.608795 -6.935905
								CHANNELS 3 Xrotation Yrotation Zrotation
								JOINT newVegas:Right_CapeC1
								{
									OFFSET 0.000000 -8.688499 0.000000
									CHANNELS 3 Xrotation Yrotation Zrotation
									End Site
									{
										OFFSET 0.000000 8.688499 0.000000
									}
								}
							}
							JOINT newVegas:Right_Sleeve
							{
								OFFSET -0.267448 -0.649994 0.577675
								CHANNELS 3 Xrotation Yrotation Zrotation
								End Site
								{
									OFFSET 0.000000 15.991302 0.000000
								}
							}
						}
						JOINT newVegas:Right_CapeA
						{
							OFFSET -5.115540 -8.608795 -10.395824
							CHANNELS 3 Xrotation Yrotation Zrotation
							JOINT newVegas:Right_CapeA1
							{
								OFFSET 0.000000 -8.688499 0.000000
								CHANNELS 3 Xrotation Yrotation Zrotation
								End Site
								{
									OFFSET 0.000000 8.688499 0.000000
								}
							}
						}
						JOINT newVegas:Right_CapeB
						{
							OFFSET -26.118187 -8.608795 -7.079266
							CHANNELS 3 Xrotation Yrotation Zrotation
							JOINT newVegas:Right_CapeB1
							{
								OFFSET 0.000000 -8.688499 0.000000
								CHANNELS 3 Xrotation Yrotation Zrotation
								End Site
								{
									OFFSET 0.000000 8.688499 0.000000
								}
							}
						}
					}
				}
				JOINT newVegas:Left_Collar
				{
					OFFSET 18.625099 8.655502 8.828100
					CHANNELS 3 Xrotation Yrotation Zrotation
					JOINT newVegas:Left_Collar1
					{
						OFFSET 14.783401 10.540405 -1.259500
						CHANNELS 3 Xrotation Yrotation Zrotation
						End Site
						{
							OFFSET 0.000000 18.199875 0.000000
						}
					}
				}
				JOINT newVegas:Collar_Back
				{
					OFFSET 0.000000 15.630707 -20.132601
					CHANNELS 3 Xrotation Yrotation Zrotation
					End Site
					{
						OFFSET 0.000000 22.523010 0.000000
					}
				}
				JOINT newVegas:Left_Peck
				{
					OFFSET 17.239599 -5.132599 25.482599
					CHANNELS 3 Xrotation Yrotation Zrotation
					End Site
					{
						OFFSET 0.000000 22.523010 0.000000
					}
				}
				JOINT newVegas:Right_Peck
				{
					OFFSET -17.239599 -5.132202 25.482599
					CHANNELS 3 Xrotation Yrotation Zrotation
					End Site
					{
						OFFSET 0.000000 22.523010 0.000000
					}
				}
				JOINT newVegas:Right_Collar
				{
					OFFSET -18.625099 8.655792 8.828100
					CHANNELS 3 Xrotation Yrotation Zrotation
					JOINT newVegas:Right_Collar1
					{
						OFFSET -14.783401 10.539993 -1.259500
						CHANNELS 3 Xrotation Yrotation Zrotation
						End Site
						{
							OFFSET 0.000000 18.199631 0.000000
						}
					}
				}
			}
		}
		JOINT newVegas:Belly
		{
			OFFSET 0.000000 -6.540398 9.014299
			CHANNELS 3 Xrotation Yrotation Zrotation
			End Site
			{
				OFFSET 0.000000 11.566666 0.000000
			}
		}
	}
	JOINT newVegas:ElvisFacialAnim_Joint
	{
		OFFSET 1.000000 -95.330101 -8.825800
		CHANNELS 3 Xrotation Yrotation Zrotation
		End Site
		{
			OFFSET 0.000000 35.315800 0.000000
		}
	}
}
MOTION
Frames: 4
Frame Time: 0.033333
-16.138042 61.036377 54.229462 -25.773717 -59.850243 -35.538468 0.000001 -0.000003 -0.000000 -16.042125 19.603242 5.100188 120.822290 14.041669 4.792817 -58.185794 -9.810535 6.335178 -0.000000 -0.000000 0.000000 -0.000000 0.000000 -0.000001 -2.941215 -13.048926 -22.997778 22.454090 2.414551 -28.199653 38.473585 -4.983363 -11.278913 0.000000 0.000001 0.000000 -0.000001 -0.000001 0.000003 -2.783315 3.658987 3.915466 10.458713 4.328890 -3.373819 10.640567 4.291300 -3.350973 -1.664212 -0.637821 2.265319 -1.664208 -0.637812 2.265321 0.000000 -0.000000 0.000001 -1.664209 -0.637835 2.265322 -1.664144 -0.637823 2.265322 -0.000000 -0.000000 -0.000000 0.000000 -0.000000 0.000001 3.002999 15.854017 -21.973571 -0.208262 47.159301 -58.409544 45.744215 -31.668295 33.535396 -10.748969 12.610799 -5.122378 40.109900 -15.297177 -0.360474 5.639795 28.097906 11.338855 -0.000000 0.000000 -0.000004 6.882202 2.840063 -61.140452 8.248000 7.640070 -89.897864 -0.000005 -0.000002 0.000001 -2.345520 4.688877 -62.655306 8.754134 9.897069 -87.051307 0.000000 0.000001 0.000003 -9.042452 10.045679 -60.766205 8.524105 9.508802 -66.893042 -0.000001 -0.000001 0.000002 -17.946921 14.755025 -51.485915 8.868418 8.667036 -84.811996 -0.000000 -0.000002 0.000000 0.000004 0.000002 0.000002 0.000004 0.000002 0.000002 0.000003 0.000002 0.000002 0.000000 -0.000002 -0.000001 0.000000 -0.000003 -0.000002 0.000000 -0.000002 -0.000001 0.000000 -0.000001 -0.000001 0.170531 4.105749 -0.770243 48.340493 -7.310098 36.250590 -116.642433 62.858852 94.693592 -29.688462 -1.071496 15.799841 7.313788 11.335041 -6.475800 -0.641220 -15.112345 -6.606880 0.000000 -0.000001 -0.000004 0.919027 -4.594356 7.885461 0.006487 -0.085948 8.391154 0.000000 0.000002 -0.000001 0.297074 -5.724556 13.200494 0.045511 -4.452194 12.151382 0.000002 -0.000000 -0.000001 1.392565 -11.317956 15.172123 -0.224712 0.080570 8.276272 -0.000002 -0.000001 0.000001 -1.062961 -13.614205 21.844671 0.622173 -2.870752 26.601239 -0.000001 0.000003 -0.000001 0.000000 0.000002 0.000000 0.000000 0.000000 -0.000000 0.000000 0.000002 0.000000 0.000002 0.000000 0.000000 0.000002 0.000000 0.000000 0.000002 0.000000 0.000000 0.000002 -0.000000 0.000000 0.000000 0.000000 -0.000001 0.000000 0.000000 -0.000001 0.000000 0.000000 -0.000001 0.000000 0.000000 -0.000001 0.000000 0.000000 -0.000001 0.000000 0.000000 -0.000001 0.000000 0.000000 -0.000001 0.000000 0.000000 -0.000001 0.000001 -0.000003 -0.000000 
-16.686815 56.872635 57.078266 -26.411910 -61.720957 -39.401220 0.000000 -0.000001 0.000001 -16.524673 20.624733 5.950880 128.576494 9.280277 4.166502 -55.735020 -10.555282 7.731473 0.000003 0.000000 -0.000003 0.000000 0.000002 0.000006 -6.229500 -10.262369 -23.141398 26.693595 3.497067 -27.504866 40.257603 -4.373539 -10.125709 -0.000001 0.000002 -0.000001 -0.000000 -0.000000 0.000000 -2.073384 3.182366 4.733063 10.502539 3.878219 -2.635292 10.655714 3.844424 -2.627417 -3.237810 -0.278656 3.390469 -3.237816 -0.278637 3.390480 -0.000000 -0.000001 0.000001 -3.237809 -0.278659 3.390475 -3.237738 -0.278642 3.390479 0.000001 -0.000004 0.000000 -0.000000 -0.000001 0.000001 1.511218 12.079365 -18.534244 5.349931 54.472415 -67.248554 52.084349 -32.340095 38.725301 -7.440376 10.450170 -4.535146 40.109893 -15.297218 -0.360495 5.639789 28.097911 11.338859 0.000001 -0.000005 -0.000003 6.882210 2.840061 -61.140411 8.247997 7.640065 -89.897871 0.000003 0.000002 0.000001 -2.345519 4.688892 -62.655327 8.754131 9.897068 -87.051307 0.000005 -0.000002 0.000001 -9.042452 10.045681 -60.766151 8.524105 9.508804 -66.893042 -0.000001 0.000001 0.000001 -17.946915 14.755027 -51.485939 8.868416 8.667038 -84.811989 0.000001 -0.000002 -0.000002 0.000001 -0.000001 -0.000001 0.000001 -0.000001 -0.000001 0.000000 -0.000001 -0.000001 0.000000 0.000001 -0.000001 0.000000 0.000000 -0.000001 0.000000 0.000001 -0.000001 -0.000000 -0.000001 0.000000 0.101464 4.433825 -2.047360 42.336508 -9.805961 32.723819 -104.957755 58.676823 84.884293 -29.065836 -5.230981 21.527527 7.325535 11.437333 -6.470405 -0.722328 -14.879598 -6.562331 0.000000 -0.000003 -0.000004 0.923512 -4.624088 7.815977 0.007330 -0.085758 7.865788 0.000000 -0.000001 -0.000002 0.301962 -5.754835 13.116536 0.030585 -4.463558 11.477475 0.000001 0.000006 0.000001 1.403130 -11.390985 15.029565 -0.217073 0.139035 7.885813 -0.000000 -0.000003 0.000002 -1.042643 -13.730424 21.703614 0.689538 -2.864320 23.390780 -0.000002 -0.000002 -0.000000 0.000000 -0.000000 0.000001 -0.000000 -0.000001 0.000001 0.000000 -0.000000 0.000001 0.000002 -0.000001 0.000002 0.000002 0.000000 0.000002 0.000002 -0.000001 0.000002 0.000002 0.000000 0.000002 -0.000000 -0.000000 -0.000002 -0.000000 -0.000000 -0.000002 -0.000000 -0.000000 -0.000002 -0.000000 -0.000000 -0.000002 -0.000000 -0.000000 -0.000002 -0.000000 -0.000000 -0.000002 -0.000000 -0.000000 -0.000002 -0.000002 -0.000001 -0.000001 0.000000 -0.000001 0.000001 
-17.155123 51.971794 60.047131 -26.630262 -63.657916 -42.900948 0.000001 0.000000 -0.000000 -24.275799 8.793935 13.660916 136.890187 -14.852409 1.469105 -41.506803 -5.443221 1.096714 0.000000 0.000000 -0.000003 -0.000000 -0.000002 -0.000004 -8.600750 -8.062287 -22.445226 27.874297 3.795512 -27.603443 43.463953 -4.382689 -10.364027 -0.000001 0.000002 -0.000001 -0.000000 0.000000 -0.000001 -1.059025 2.852961 5.153440 10.613809 3.603253 -2.153750 10.742958 3.581382 -2.163215 -4.536763 -0.106980 4.794418 -4.536748 -0.106989 4.794432 0.000000 0.000001 -0.000001 -4.536776 -0.106944 4.794418 -4.536778 -0.106982 4.794423 0.000000 0.000002 0.000000 0.000000 0.000001 -0.000001 1.119375 11.923057 -17.028561 7.233169 55.522652 -72.845661 58.296361 -31.431554 43.393961 -6.629189 8.813983 1.022468 40.109914 -15.297252 -0.360499 5.639795 28.097908 11.338859 0.000001 0.000004 -0.000000 6.882211 2.840060 -61.140466 8.247999 7.640069 -89.897864 0.000000 0.000000 0.000002 -2.345511 4.688863 -62.655306 8.754138 9.897067 -87.051307 0.000001 0.000001 0.000001 -9.042446 10.045672 -60.766267 8.524103 9.508798 -66.893049 -0.000001 0.000001 0.000002 -17.946921 14.755039 -51.485939 8.868418 8.667036 -84.811996 -0.000000 -0.000003 -0.000002 -0.000002 0.000000 -0.000002 -0.000002 0.000000 -0.000002 -0.000003 0.000000 -0.000002 -0.000000 -0.000002 -0.000001 -0.000000 -0.000003 -0.000001 -0.000000 -0.000002 -0.000001 -0.000001 -0.000003 -0.000001 -0.013176 4.373052 -1.192477 29.431917 -13.279572 29.159324 -89.498510 58.504580 72.427961 -30.117292 -6.946097 21.934396 7.324927 11.515223 -6.477834 -0.763804 -14.691426 -6.532314 -0.000000 -0.000001 -0.000000 0.953349 -4.645652 7.760359 0.008517 -0.085544 7.473873 -0.000001 -0.000001 0.000001 0.306004 -5.780443 13.045409 0.021655 -4.473400 10.974188 0.000003 0.000000 0.000000 1.411825 -11.453000 14.908172 -0.210124 0.188042 7.591714 0.000001 -0.000004 -0.000002 -1.025342 -13.828919 21.585037 0.751178 -2.872176 20.594897 -0.000001 0.000003 -0.000002 0.000000 -0.000000 0.000001 0.000000 0.000000 -0.000000 0.000000 -0.000001 -0.000000 -0.000001 -0.000001 0.000001 -0.000001 -0.000001 0.000001 -0.000001 -0.000001 0.000001 -0.000001 -0.000001 0.000001 0.000000 -0.000003 -0.000000 0.000000 -0.000003 -0.000000 0.000000 -0.000003 -0.000000 0.000000 -0.000003 -0.000000 0.000000 -0.000003 -0.000000 0.000000 -0.000003 -0.000000 0.000000 -0.000003 -0.000000 0.000000 0.000002 -0.000000 0.000001 0.000000 -0.000000 
-17.340078 45.512741 63.132992 -24.716163 -65.502122 -44.665209 -0.000000 0.000001 -0.000003 -31.172884 -3.584707 18.515789 134.605502 -38.522728 1.136423 -20.336234 3.469833 -21.599024 -0.000000 0.000000 -0.000003 -0.000001 0.000001 0.000000 -10.701307 -7.159938 -19.790398 26.760000 4.137578 -30.787102 48.395015 -5.217720 -11.205011 -0.000001 0.000000 -0.000000 -0.000000 0.000000 -0.000001 0.326329 2.862862 4.927973 10.411905 3.616337 -1.476149 10.519785 3.637813 -1.518777 -5.472091 -0.049013 5.803602 -5.472083 -0.049002 5.803602 0.000001 -0.000001 0.000000 -5.472021 -0.049049 5.803607 -5.472117 -0.049002 5.803603 0.000001 -0.000002 -0.000001 0.000001 -0.000001 0.000000 0.893417 11.880493 -16.848492 1.786320 55.966877 -72.692119 61.698506 -31.602285 47.185163 -6.480658 11.334230 7.555725 40.109883 -15.297192 -0.360493 5.639792 28.097908 11.338858 0.000001 0.000001 -0.000001 6.882186 2.840081 -61.140466 8.248003 7.640069 -89.897871 0.000001 0.000000 -0.000000 -2.345514 4.688892 -62.655306 8.754135 9.897071 -87.051307 0.000002 -0.000003 0.000001 -9.042455 10.045689 -60.766192 8.524102 9.508802 -66.893049 0.000002 -0.000004 -0.000001 -17.946927 14.755058 -51.485887 8.868419 8.667036 -84.811996 -0.000000 0.000000 0.000001 -0.000004 0.000001 -0.000002 -0.000004 0.000001 -0.000002 -0.000005 0.000001 -0.000002 -0.000000 -0.000006 -0.000002 -0.000000 -0.000007 -0.000002 -0.000000 -0.000006 -0.000002 -0.000000 -0.000006 -0.000001 -0.112164 3.434411 0.561822 13.096074 -17.762023 25.350329 -75.486219 56.324352 61.808567 -32.596897 -3.023009 14.763242 7.308728 11.573294 -6.500562 -0.758662 -14.528803 -6.521570 0.000002 -0.000003 0.000001 1.024523 -4.657457 7.714843 0.009713 -0.085384 7.184993 -0.000000 -0.000003 0.000001 0.309284 -5.801625 12.986254 0.019434 -4.481597 10.604195 0.000001 -0.000001 -0.000001 1.418784 -11.504417 14.808214 -0.204346 0.228195 7.368819 0.000001 -0.000001 -0.000001 -1.009836 -13.908573 21.475262 0.799645 -2.885957 18.524364 0.000003 -0.000000 -0.000000 -0.000001 -0.000001 -0.000000 -0.000001 -0.000001 0.000000 -0.000001 -0.000001 -0.000000 0.000001 -0.000001 0.000000 0.000001 0.000000 0.000000 0.000001 -0.000001 0.000000 0.000001 -0.000000 0.000000 -0.000001 0.000000 -0.000000 -0.000001 0.000000 -0.000000 -0.000001 0.000000 -0.000000 -0.000001 0.000000 -0.000000 -0.000001 0.000000 -0.000000 -0.000001 0.000000 -0.000000 -0.000001 0.000000 -0.000000 -0.000000 -0.000001 0.000002 -0.000000 0.000001 -0.000003 
